;TYPE=PLATED
;Layer: PTH_Through
;EasyEDA Pro v2.2.40.3, 2025-07-22 16:06:13
;Gerber Generator version 0.3
M48
METRIC,LZ,0000.00000
;Hole size 1 = 0.91399 METRIC
T01C0.91399
;Hole size 2 = 1.90002 METRIC
T02C1.90002
%
G05
G90
T01
X12.6656Y45.36957
X12.6656Y43.36957
X12.6656Y39.41558
X12.6656Y37.41558
X12.6656Y33.46159
X12.6656Y31.46159
X12.6656Y27.5076
X12.6656Y25.5076
X12.6656Y21.55361
X12.6656Y19.55362
X12.6656Y15.59962
X12.6656Y13.59963
T02
X3.8156Y44.36957
X8.81559Y44.36957
X3.8156Y38.41558
X8.81559Y38.41558
X3.8156Y32.46159
X8.81559Y32.46159
X3.8156Y26.5076
X8.81559Y26.5076
X3.8156Y20.55361
X8.81559Y20.55361
X3.8156Y14.59963
X8.81559Y14.59963
M30