G04 Layer: TopLayer*
G04 EasyEDA Pro v2.2.40.3, 2025-07-22 16:06:13*
G04 Gerber Generator version 0.3*
G04 Scale: 100 percent, Rotated: No, Reflected: No*
G04 Dimensions in millimeters*
G04 Leading zeros omitted, absolute positions, 4 integers and 5 decimals*
G04 Generated by one-click*
%FSLAX45Y45*%
%MOMM*%
%ADD10C,4.0*%
%ADD11C,2.69999*%
%ADD12C,1.524*%
%ADD13C,0.5*%
%ADD14C,0.3169*%
G75*


G04 PolygonModel Start*
G54D10*
G01X381573Y4436957D02*
G01X381573Y1459963D01*
G01X881572Y4436957D02*
G01X881572Y1459963D01*

G04 Pad Start*
G54D11*
G01X381573Y4436957D03*
G01X881572Y4436957D03*
G54D12*
G01X1266560Y4536957D03*
G01X1266560Y4336957D03*
G54D11*
G01X381573Y3841558D03*
G01X881572Y3841558D03*
G54D12*
G01X1266560Y3941558D03*
G01X1266560Y3741558D03*
G54D11*
G01X381573Y3246159D03*
G01X881572Y3246159D03*
G54D12*
G01X1266560Y3346159D03*
G01X1266560Y3146159D03*
G54D11*
G01X381573Y2650760D03*
G01X881572Y2650760D03*
G54D12*
G01X1266560Y2750760D03*
G01X1266560Y2550760D03*
G54D11*
G01X381573Y2055361D03*
G01X881572Y2055361D03*
G54D12*
G01X1266560Y2155361D03*
G01X1266560Y1955362D03*
G54D11*
G01X381573Y1459963D03*
G01X881572Y1459963D03*
G54D12*
G01X1266560Y1559962D03*
G01X1266560Y1359963D03*
G04 Pad End*

G04 Track Start*
G54D13*
G01X1266560Y1559962D02*
G01X1433745Y1727148D01*
G01X1433745Y4369771D02*
G01X1266560Y4536957D01*
G01X1433745Y3345181D02*
G01X1433745Y3937461D01*
G01X1266560Y2750760D02*
G01X1432107Y2750760D01*
G01X1433745Y2752399D01*
G01X1433745Y3345181D01*
G01X1432226Y2155361D02*
G01X1266560Y2155361D01*
G01X1433745Y2156880D02*
G01X1432226Y2155361D01*
G01X1433745Y1727148D02*
G01X1433745Y2156880D01*
G01X1433745Y2165754D02*
G01X1433745Y2752399D01*
G01X1266560Y3346159D02*
G01X1430342Y3346159D01*
G01X1431319Y3345181D01*
G01X1433745Y3345181D01*
G01X1266560Y3941558D02*
G01X1431843Y3941558D01*
G01X1433745Y3939655D01*
G01X1433745Y4369771D01*
G04 Track End*

M02*

