G04 Layer: TopSilkscreenLayer*
G04 EasyEDA Pro v2.2.40.3, 2025-07-22 16:06:13*
G04 Gerber Generator version 0.3*
G04 Scale: 100 percent, Rotated: No, Reflected: No*
G04 Dimensions in millimeters*
G04 Leading zeros omitted, absolute positions, 4 integers and 5 decimals*
G04 Generated by one-click*
%FSLAX45Y45*%
%MOMM*%
%ADD10C,0.254*%
%ADD11C,0.0708*%
G75*


G04 PolygonModel Start*
G54D10*
G01X24058Y4401943D02*
G01X24045Y4471948D01*
G01X24045Y4471948D02*
G01X106862Y4471948D01*
G01X94063Y4401956D02*
G01X24058Y4401943D01*
G01X1514060Y4471955D02*
G01X1584060Y4471955D01*
G01X1584060Y4471955D02*
G01X1584060Y4401956D01*
G01X1584060Y4401956D02*
G01X1501261Y4401956D01*
G01X111264Y4696956D02*
G01X1501261Y4696956D01*
G01X1501261Y4696956D02*
G01X1501261Y4176957D01*
G01X1501261Y4176957D02*
G01X111264Y4176957D01*
G01X111264Y4176957D02*
G01X111264Y4696255D01*
G36*
G01X824061Y4641955D02*
G01X824061Y4611955D01*
G01X969062Y4611955D01*
G01X969062Y4641955D01*
G01X824061Y4641955D01*
G37*
G36*
G01X329064Y4641955D02*
G01X329064Y4611963D01*
G01X474062Y4611963D01*
G01X474062Y4641955D01*
G01X329064Y4641955D01*
G37*
G36*
G01X384062Y4586957D02*
G01X414062Y4586957D01*
G01X414062Y4676956D01*
G01X384062Y4676956D01*
G01X384062Y4586957D01*
G37*
G01X24058Y3806544D02*
G01X24045Y3876549D01*
G01X24045Y3876549D02*
G01X106862Y3876549D01*
G01X94063Y3806557D02*
G01X24058Y3806544D01*
G01X1514060Y3876557D02*
G01X1584060Y3876557D01*
G01X1584060Y3876557D02*
G01X1584060Y3806557D01*
G01X1584060Y3806557D02*
G01X1501261Y3806557D01*
G01X111264Y4101557D02*
G01X1501261Y4101557D01*
G01X1501261Y4101557D02*
G01X1501261Y3581558D01*
G01X1501261Y3581558D02*
G01X111264Y3581558D01*
G01X111264Y3581558D02*
G01X111264Y4100856D01*
G36*
G01X824061Y4046556D02*
G01X824061Y4016556D01*
G01X969062Y4016556D01*
G01X969062Y4046556D01*
G01X824061Y4046556D01*
G37*
G36*
G01X329064Y4046556D02*
G01X329064Y4016564D01*
G01X474062Y4016564D01*
G01X474062Y4046556D01*
G01X329064Y4046556D01*
G37*
G36*
G01X384062Y3991558D02*
G01X414062Y3991558D01*
G01X414062Y4081557D01*
G01X384062Y4081557D01*
G01X384062Y3991558D01*
G37*
G01X24058Y3211145D02*
G01X24045Y3281150D01*
G01X24045Y3281150D02*
G01X106862Y3281150D01*
G01X94063Y3211158D02*
G01X24058Y3211145D01*
G01X1514060Y3281158D02*
G01X1584060Y3281158D01*
G01X1584060Y3281158D02*
G01X1584060Y3211158D01*
G01X1584060Y3211158D02*
G01X1501261Y3211158D01*
G01X111264Y3506159D02*
G01X1501261Y3506159D01*
G01X1501261Y3506159D02*
G01X1501261Y2986160D01*
G01X1501261Y2986160D02*
G01X111264Y2986160D01*
G01X111264Y2986160D02*
G01X111264Y3505458D01*
G36*
G01X824061Y3451157D02*
G01X824061Y3421157D01*
G01X969062Y3421157D01*
G01X969062Y3451157D01*
G01X824061Y3451157D01*
G37*
G36*
G01X329064Y3451157D02*
G01X329064Y3421165D01*
G01X474062Y3421165D01*
G01X474062Y3451157D01*
G01X329064Y3451157D01*
G37*
G36*
G01X384062Y3396159D02*
G01X414062Y3396159D01*
G01X414062Y3486159D01*
G01X384062Y3486159D01*
G01X384062Y3396159D01*
G37*
G01X24058Y2615746D02*
G01X24045Y2685751D01*
G01X24045Y2685751D02*
G01X106862Y2685751D01*
G01X94063Y2615759D02*
G01X24058Y2615746D01*
G01X1514060Y2685759D02*
G01X1584060Y2685759D01*
G01X1584060Y2685759D02*
G01X1584060Y2615759D01*
G01X1584060Y2615759D02*
G01X1501261Y2615759D01*
G01X111264Y2910760D02*
G01X1501261Y2910760D01*
G01X1501261Y2910760D02*
G01X1501261Y2390761D01*
G01X1501261Y2390761D02*
G01X111264Y2390761D01*
G01X111264Y2390761D02*
G01X111264Y2910059D01*
G36*
G01X824061Y2855759D02*
G01X824061Y2825759D01*
G01X969062Y2825759D01*
G01X969062Y2855759D01*
G01X824061Y2855759D01*
G37*
G36*
G01X329064Y2855759D02*
G01X329064Y2825766D01*
G01X474062Y2825766D01*
G01X474062Y2855759D01*
G01X329064Y2855759D01*
G37*
G36*
G01X384062Y2800760D02*
G01X414062Y2800760D01*
G01X414062Y2890760D01*
G01X384062Y2890760D01*
G01X384062Y2800760D01*
G37*
G01X24058Y2020347D02*
G01X24045Y2090352D01*
G01X24045Y2090352D02*
G01X106862Y2090352D01*
G01X94063Y2020360D02*
G01X24058Y2020347D01*
G01X1514060Y2090360D02*
G01X1584060Y2090360D01*
G01X1584060Y2090360D02*
G01X1584060Y2020360D01*
G01X1584060Y2020360D02*
G01X1501261Y2020360D01*
G01X111264Y2315361D02*
G01X1501261Y2315361D01*
G01X1501261Y2315361D02*
G01X1501261Y1795362D01*
G01X1501261Y1795362D02*
G01X111264Y1795362D01*
G01X111264Y1795362D02*
G01X111264Y2314660D01*
G36*
G01X824061Y2260360D02*
G01X824061Y2230360D01*
G01X969062Y2230360D01*
G01X969062Y2260360D01*
G01X824061Y2260360D01*
G37*
G36*
G01X329064Y2260360D02*
G01X329064Y2230367D01*
G01X474062Y2230367D01*
G01X474062Y2260360D01*
G01X329064Y2260360D01*
G37*
G36*
G01X384062Y2205361D02*
G01X414062Y2205361D01*
G01X414062Y2295361D01*
G01X384062Y2295361D01*
G01X384062Y2205361D01*
G37*
G01X24058Y1424949D02*
G01X24045Y1494954D01*
G01X24045Y1494954D02*
G01X106862Y1494954D01*
G01X94063Y1424961D02*
G01X24058Y1424949D01*
G01X1514060Y1494961D02*
G01X1584060Y1494961D01*
G01X1584060Y1494961D02*
G01X1584060Y1424961D01*
G01X1584060Y1424961D02*
G01X1501261Y1424961D01*
G01X111264Y1719962D02*
G01X1501261Y1719962D01*
G01X1501261Y1719962D02*
G01X1501261Y1199963D01*
G01X1501261Y1199963D02*
G01X111264Y1199963D01*
G01X111264Y1199963D02*
G01X111264Y1719261D01*
G36*
G01X824061Y1664961D02*
G01X824061Y1634961D01*
G01X969062Y1634961D01*
G01X969062Y1664961D01*
G01X824061Y1664961D01*
G37*
G36*
G01X329064Y1664961D02*
G01X329064Y1634969D01*
G01X474062Y1634969D01*
G01X474062Y1664961D01*
G01X329064Y1664961D01*
G37*
G36*
G01X384062Y1609962D02*
G01X414062Y1609962D01*
G01X414062Y1699962D01*
G01X384062Y1699962D01*
G01X384062Y1609962D01*
G37*

M02*

